<svg width="24" height="24" viewBox="0 0 24 24" fill="none" xmlns="http://www.w3.org/2000/svg">
<path d="M2.3999 7.00799V6.23999C2.3999 4.11922 4.11913 2.39999 6.2399 2.39999H7.0079M16.9919 2.39999L17.7599 2.39999C19.8807 2.39999 21.5999 4.11922 21.5999 6.23999V7.00799M5.8559 18.912L3.1679 21.6M20.8319 21.6L18.1439 18.912M14.9999 12.6H8.9999M20.4479 12.768C20.4479 17.4337 16.6656 21.216 11.9999 21.216C7.3342 21.216 3.5519 17.4337 3.5519 12.768C3.5519 8.10229 7.3342 4.31999 11.9999 4.31999C16.6656 4.31999 20.4479 8.10229 20.4479 12.768Z" stroke="black" stroke-width="2" stroke-linecap="round"/>
</svg>