<svg width="24" height="24" viewBox="0 0 24 24" fill="none" xmlns="http://www.w3.org/2000/svg">
<path d="M4.5095 9.78037C5.26949 7.22677 7.37434 5.25237 10.0027 4.67854M9.47555 18.9638C7.09509 18.2553 5.21796 16.3782 4.5095 13.9977M18.6589 13.9977C17.9505 16.3782 16.0733 18.2553 13.6929 18.9638M13.1657 4.67854C15.9723 5.29128 18.182 7.50095 18.7947 10.3075M10.3634 6.83933H13.027C13.5173 6.83933 13.9149 6.44182 13.9149 5.95147V3.28789C13.9149 2.79753 13.5173 2.40002 13.027 2.40002H10.3634C9.87306 2.40002 9.47555 2.79753 9.47555 3.28789V5.95147C9.47555 6.44182 9.87306 6.83933 10.3634 6.83933ZM10.3634 21.6H13.027C13.5173 21.6 13.9149 21.2025 13.9149 20.7122V18.0486C13.9149 17.5582 13.5173 17.1607 13.027 17.1607H10.3634C9.87306 17.1607 9.47555 17.5582 9.47555 18.0486V20.7122C9.47555 21.2025 9.87306 21.6 10.3634 21.6ZM16.1065 10.668V13.3316C16.1065 13.8219 16.504 14.2194 16.9944 14.2194H19.658C20.1483 14.2194 20.5458 13.8219 20.5458 13.3316V10.668C20.5458 10.1776 20.1483 9.78011 19.658 9.78011H16.9944C16.504 9.78011 16.1065 10.1776 16.1065 10.668ZM2.40015 10.668L2.40015 13.3316C2.40015 13.8219 2.79766 14.2194 3.28801 14.2194H5.95159C6.44194 14.2194 6.83945 13.8219 6.83945 13.3316L6.83945 10.668C6.83945 10.1776 6.44194 9.78011 5.95159 9.78011H3.28801C2.79766 9.78011 2.40015 10.1776 2.40015 10.668Z" stroke="black" stroke-width="2"/>
</svg>