<svg width="24" height="24" viewBox="0 0 24 24" fill="none" xmlns="http://www.w3.org/2000/svg">
<path d="M5.89081 18.0196H7.05445M16.3635 13.365H19.2726C20.5579 13.365 21.5999 14.407 21.5999 15.6923V19.1832C21.5999 20.4685 20.5579 21.5105 19.2726 21.5105H7.05445M11.1272 6.748L14.7043 3.1709C15.6131 2.26204 17.0867 2.26204 17.9955 3.1709L20.464 5.63934C21.3728 6.5482 21.3728 8.02175 20.464 8.9306L10.5454 18.8492M4.72717 21.5105H8.21808C9.5034 21.5105 10.5454 20.4685 10.5454 19.1832V5.21959C10.5454 3.93427 9.5034 2.89231 8.21808 2.89231H4.72717C3.44186 2.89231 2.3999 3.93427 2.3999 5.21959V19.1832C2.3999 20.4685 3.44186 21.5105 4.72717 21.5105Z" stroke="black" stroke-width="2" stroke-linecap="round" stroke-linejoin="round"/>
</svg>