<svg width="24" height="24" viewBox="0 0 24 24" fill="none" xmlns="http://www.w3.org/2000/svg">
<path d="M15.103 3.10297L15.8101 2.39586V2.39586L15.103 3.10297ZM18.4971 6.49708L17.79 7.20419V7.20419L18.4971 6.49708ZM9.69294 16.7071C10.0835 17.0977 10.7166 17.0977 11.1072 16.7071C11.4977 16.3166 11.4977 15.6834 11.1072 15.2929L9.69294 16.7071ZM8.40005 14L7.69294 13.2929C7.50541 13.4805 7.40005 13.7348 7.40005 14C7.40005 14.2652 7.50541 14.5196 7.69294 14.7071L8.40005 14ZM11.1072 12.7071C11.4977 12.3166 11.4977 11.6834 11.1072 11.2929C10.7166 10.9024 10.0835 10.9024 9.69294 11.2929L11.1072 12.7071ZM14.3072 11.2929C13.9166 10.9024 13.2835 10.9024 12.8929 11.2929C12.5024 11.6834 12.5024 12.3166 12.8929 12.7071L14.3072 11.2929ZM15.6 14L16.3072 14.7071C16.4947 14.5196 16.6 14.2652 16.6 14C16.6 13.7348 16.4947 13.4805 16.3072 13.2929L15.6 14ZM12.8929 15.2929C12.5024 15.6834 12.5024 16.3166 12.8929 16.7071C13.2835 17.0977 13.9166 17.0977 14.3072 16.7071L12.8929 15.2929ZM16.8001 20.6H7.20005V22.6H16.8001V20.6ZM5.80005 19.2V4.80002H3.80005V19.2H5.80005ZM7.20005 3.40002H13.4059V1.40002H7.20005V3.40002ZM18.2001 8.19414V19.2H20.2001V8.19414H18.2001ZM13.4059 3.40002C13.7772 3.40002 14.1333 3.54752 14.3959 3.81008L15.8101 2.39586C15.1725 1.75824 14.3077 1.40002 13.4059 1.40002V3.40002ZM7.20005 20.6C6.42685 20.6 5.80005 19.9732 5.80005 19.2H3.80005C3.80005 21.0778 5.32228 22.6 7.20005 22.6V20.6ZM16.8001 22.6C18.6778 22.6 20.2001 21.0778 20.2001 19.2H18.2001C18.2001 19.9732 17.5732 20.6 16.8001 20.6V22.6ZM17.79 7.20419C18.0526 7.46674 18.2001 7.82283 18.2001 8.19414H20.2001C20.2001 7.2924 19.8418 6.4276 19.2042 5.78997L17.79 7.20419ZM5.80005 4.80002C5.80005 4.02683 6.42685 3.40002 7.20005 3.40002V1.40002C5.32228 1.40002 3.80005 2.92226 3.80005 4.80002H5.80005ZM12.2 2.40002V7.20002H14.2001V2.40002H12.2ZM14.4001 9.40002H19.2001V7.40002H14.4001V9.40002ZM12.2 7.20002C12.2 8.41505 13.185 9.40002 14.4001 9.40002V7.40002C14.2896 7.40002 14.2001 7.31048 14.2001 7.20002H12.2ZM14.3959 3.81007L17.79 7.20419L19.2042 5.78997L15.8101 2.39586L14.3959 3.81007ZM11.1072 15.2929L9.10716 13.2929L7.69294 14.7071L9.69294 16.7071L11.1072 15.2929ZM9.10716 14.7071L11.1072 12.7071L9.69294 11.2929L7.69294 13.2929L9.10716 14.7071ZM12.8929 12.7071L14.8929 14.7071L16.3072 13.2929L14.3072 11.2929L12.8929 12.7071ZM14.8929 13.2929L12.8929 15.2929L14.3072 16.7071L16.3072 14.7071L14.8929 13.2929Z" fill="black"/>
</svg>