<svg width="24" height="24" viewBox="0 0 24 24" fill="none" xmlns="http://www.w3.org/2000/svg">
<path d="M1.40627 15.9674C1.34406 16.5162 1.7385 17.0115 2.28727 17.0737C2.83604 17.1359 3.33134 16.7415 3.39354 16.1927L1.40627 15.9674ZM3.5199 6.19922L2.8772 5.4331C2.68077 5.59789 2.55514 5.83182 2.52627 6.08659L3.5199 6.19922ZM6.4026 5.08619C6.82572 4.73123 6.88097 4.10048 6.52602 3.67737C6.17107 3.25425 5.54032 3.199 5.1172 3.55395L6.4026 5.08619ZM20.6063 16.1927C20.6685 16.7415 21.1638 17.1359 21.7125 17.0737C22.2613 17.0115 22.6557 16.5162 22.5935 15.9674L20.6063 16.1927ZM20.4799 6.19922L21.4735 6.08659C21.4447 5.83182 21.319 5.59789 21.1226 5.4331L20.4799 6.19922ZM18.8826 3.55395C18.4595 3.199 17.8287 3.25425 17.4738 3.67737C17.1188 4.10048 17.1741 4.73123 17.5972 5.08619L18.8826 3.55395ZM8.1199 16.3201C8.1199 17.6235 7.06329 18.6801 5.7599 18.6801V20.6801C8.16786 20.6801 10.1199 18.728 10.1199 16.3201H8.1199ZM5.7599 18.6801C4.45651 18.6801 3.3999 17.6235 3.3999 16.3201H1.3999C1.3999 18.728 3.35194 20.6801 5.7599 20.6801V18.6801ZM3.3999 16.3201C3.3999 15.0167 4.45651 13.9601 5.7599 13.9601V11.9601C3.35194 11.9601 1.3999 13.9121 1.3999 16.3201H3.3999ZM5.7599 13.9601C7.06329 13.9601 8.1199 15.0167 8.1199 16.3201H10.1199C10.1199 13.9121 8.16786 11.9601 5.7599 11.9601V13.9601ZM9.95504 16.1008C10.3646 15.3928 11.1276 14.9201 11.9999 14.9201V12.9201C10.3848 12.9201 8.97618 13.7987 8.22383 15.0993L9.95504 16.1008ZM11.9999 14.9201C12.8722 14.9201 13.6352 15.3928 14.0448 16.1008L15.776 15.0993C15.0237 13.7987 13.615 12.9201 11.9999 12.9201V14.9201ZM20.5999 16.3201C20.5999 17.6235 19.5433 18.6801 18.2399 18.6801V20.6801C20.6479 20.6801 22.5999 18.728 22.5999 16.3201H20.5999ZM18.2399 18.6801C16.9365 18.6801 15.8799 17.6235 15.8799 16.3201H13.8799C13.8799 18.728 15.8319 20.6801 18.2399 20.6801V18.6801ZM15.8799 16.3201C15.8799 15.0167 16.9365 13.9601 18.2399 13.9601V11.9601C15.8319 11.9601 13.8799 13.9121 13.8799 16.3201H15.8799ZM18.2399 13.9601C19.5433 13.9601 20.5999 15.0167 20.5999 16.3201H22.5999C22.5999 13.9121 20.6479 11.9601 18.2399 11.9601V13.9601ZM3.39354 16.1927L4.51354 6.31185L2.52627 6.08659L1.40627 15.9674L3.39354 16.1927ZM4.1626 6.96533L6.4026 5.08619L5.1172 3.55395L2.8772 5.4331L4.1626 6.96533ZM22.5935 15.9674L21.4735 6.08659L19.4863 6.31185L20.6063 16.1927L22.5935 15.9674ZM21.1226 5.4331L18.8826 3.55395L17.5972 5.08619L19.8372 6.96534L21.1226 5.4331Z" fill="black"/>
</svg>