<svg width="24" height="24" viewBox="0 0 24 24" fill="none" xmlns="http://www.w3.org/2000/svg">
<path d="M18.4475 18.2538L17.939 17.3927L18.4475 18.2538ZM18.939 17.3927H17.939V17.3927H18.939ZM10.9657 21.4035L10.4292 22.2474V22.2474L10.9657 21.4035ZM13.0555 21.4378L13.564 22.2988L13.0555 21.4378ZM1.90419 8.13674L1.39226 7.27771L1.90419 8.13674ZM1.90419 8.99577L1.39226 9.8548V9.8548L1.90419 8.99577ZM12.512 14.7072L13.024 15.5663L12.512 14.7072ZM11.4882 14.7072L12.0001 13.8482V13.8482L11.4882 14.7072ZM22.096 8.13674L22.6079 7.27771L22.096 8.13674ZM22.096 8.99577L21.5841 8.13674V8.13674L22.096 8.99577ZM6.01768 18.2582L6.55413 17.4143V17.4143L6.01768 18.2582ZM12.512 2.42527L12.0001 3.2843V3.2843L12.512 2.42527ZM11.4882 2.42527L12.0001 3.2843V3.2843L11.4882 2.42527ZM23.2001 8.54961C23.2001 7.99733 22.7524 7.54961 22.2001 7.54961C21.6478 7.54961 21.2001 7.99733 21.2001 8.54961H23.2001ZM21.2001 13.9496C21.2001 14.5019 21.6478 14.9496 22.2001 14.9496C22.7524 14.9496 23.2001 14.5019 23.2001 13.9496H21.2001ZM12.0001 3.2843L21.5841 8.99577L22.6079 7.27771L13.024 1.56625L12.0001 3.2843ZM21.5841 8.13674L12.0001 13.8482L13.024 15.5663L22.6079 9.8548L21.5841 8.13674ZM2.41612 8.99577L12.0001 3.2843L10.9762 1.56625L1.39226 7.27771L2.41612 8.99577ZM12.0001 13.8482L6.06606 10.3119L5.0422 12.0299L10.9762 15.5663L12.0001 13.8482ZM6.06606 10.3119L2.41612 8.13674L1.39226 9.8548L5.0422 12.0299L6.06606 10.3119ZM4.55413 11.1709V17.4143H6.55413V11.1709H4.55413ZM5.48123 19.1022L10.4292 22.2474L11.5021 20.5595L6.55413 17.4143L5.48123 19.1022ZM13.564 22.2988L18.956 19.1149L17.939 17.3927L12.5471 20.5767L13.564 22.2988ZM19.939 17.3927L19.939 11.1709H17.939L17.939 17.3927H19.939ZM18.956 19.1149C19.5652 18.7551 19.939 18.1003 19.939 17.3927H17.939V17.3927L18.956 19.1149ZM10.4292 22.2474C11.3814 22.8526 12.5925 22.8725 13.564 22.2988L12.5471 20.5767C12.2232 20.7679 11.8195 20.7613 11.5021 20.5595L10.4292 22.2474ZM1.39226 7.27771C0.416118 7.85944 0.416123 9.27308 1.39226 9.8548L2.41612 8.13674C2.7415 8.33065 2.7415 8.80186 2.41612 8.99577L1.39226 7.27771ZM12.0001 13.8482L12.0001 13.8482L10.9762 15.5663C11.6071 15.9422 12.3931 15.9422 13.024 15.5663L12.0001 13.8482ZM21.5841 8.99577C21.2587 8.80186 21.2587 8.33065 21.5841 8.13674L22.6079 9.8548C23.5841 9.27308 23.5841 7.85944 22.6079 7.27771L21.5841 8.99577ZM4.55413 17.4143C4.55413 18.0984 4.90384 18.7351 5.48123 19.1022L6.55413 17.4143V17.4143H4.55413ZM13.024 1.56625C12.3931 1.19032 11.6071 1.19032 10.9762 1.56625L12.0001 3.2843L12.0001 3.2843L13.024 1.56625ZM21.2001 8.54961V13.9496H23.2001V8.54961H21.2001Z" fill="black"/>
</svg>