<svg width="24" height="24" viewBox="0 0 24 24" fill="none" xmlns="http://www.w3.org/2000/svg">
<path d="M22.5992 12.6C22.5992 12.0477 22.1515 11.6 21.5992 11.6C21.0469 11.6 20.5992 12.0477 20.5992 12.6H22.5992ZM20.7837 16.4779L19.8691 16.0736C19.7934 16.2449 19.7672 16.434 19.7937 16.6194L20.7837 16.4779ZM16.6981 20.9733L16.9406 20.0032C16.6927 19.9412 16.4306 19.9765 16.2079 20.1017L16.6981 20.9733ZM21.601 22.1991L21.3585 23.1692C21.6815 23.25 22.0235 23.1647 22.2707 22.9417C22.518 22.7187 22.638 22.3873 22.5909 22.0577L21.601 22.1991ZM10.3855 4.15094C10.9281 4.04801 11.2846 3.5247 11.1816 2.98209C11.0787 2.43948 10.5554 2.08305 10.0128 2.18598L10.3855 4.15094ZM20.5992 12.6C20.5992 13.8381 20.3381 15.0126 19.8691 16.0736L21.6983 16.8823C22.2778 15.5715 22.5992 14.1219 22.5992 12.6H20.5992ZM11.9992 21.2C7.24952 21.2 3.39917 17.3496 3.39917 12.6H1.39917C1.39917 18.4542 6.14495 23.2 11.9992 23.2V21.2ZM16.2079 20.1017C14.9647 20.8009 13.5301 21.2 11.9992 21.2V23.2C13.8823 23.2 15.6535 22.7081 17.1882 21.845L16.2079 20.1017ZM21.8435 21.2289L16.9406 20.0032L16.4555 21.9435L21.3585 23.1692L21.8435 21.2289ZM19.7937 16.6194L20.611 22.3405L22.5909 22.0577L21.7736 16.3365L19.7937 16.6194ZM3.39917 12.6C3.39917 8.40259 6.40721 4.9056 10.3855 4.15094L10.0128 2.18598C5.10803 3.11638 1.39917 7.42399 1.39917 12.6H3.39917ZM20.5992 5.39999C20.5992 6.83593 19.4351 7.99999 17.9992 7.99999V9.99999C20.5397 9.99999 22.5992 7.9405 22.5992 5.39999H20.5992ZM17.9992 7.99999C16.5632 7.99999 15.3992 6.83593 15.3992 5.39999H13.3992C13.3992 7.9405 15.4587 9.99999 17.9992 9.99999V7.99999ZM15.3992 5.39999C15.3992 3.96405 16.5632 2.79999 17.9992 2.79999V0.799988C15.4587 0.799988 13.3992 2.85948 13.3992 5.39999H15.3992ZM17.9992 2.79999C19.4351 2.79999 20.5992 3.96405 20.5992 5.39999H22.5992C22.5992 2.85948 20.5397 0.799988 17.9992 0.799988V2.79999Z" fill="black"/>
</svg>