<svg width="24" height="24" viewBox="0 0 24 24" fill="none" xmlns="http://www.w3.org/2000/svg">
<path d="M11.5304 13.8307C12.0236 14.2372 13.1312 15.0073 13.6563 15.3387C13.8441 15.4575 14.0364 15.5535 14.2196 15.6449C14.3845 15.7272 14.5402 15.8049 14.673 15.8871C14.6913 15.8963 14.7097 15.91 14.728 15.9191C14.8837 15.9968 15.0302 16.0334 15.1814 16.0334C15.5615 16.0334 15.7996 15.7957 15.8775 15.718L16.7752 14.8222C16.9309 14.6668 17.1782 14.4794 17.4667 14.4794C17.7506 14.4794 17.9842 14.6577 18.1262 14.813L20.6587 17.3404C21.1305 17.8066 20.6633 18.771 20.6633 18.771C20.6633 18.771 19.5047 19.909 19.2207 20.2426C18.7582 20.7362 18.2132 20.9693 17.4988 20.9693C17.4301 20.9693 17.3568 20.9693 17.2881 20.9647C15.9279 20.8779 14.6639 20.3477 13.7159 19.8953C12.0899 19.1097 10.1943 17.577 8.83397 16.3902M6.03577 13.4399C4.96989 11.9953 4.20461 10.6036 3.65891 9.13211C3.233 7.9941 3.07729 7.10745 3.14598 6.27108C3.19178 5.73635 3.39787 5.29303 3.77798 4.91369L5.33966 3.3552C5.56406 3.14497 5.80221 3.03071 6.03577 3.03071C6.32429 3.03071 6.55786 3.20438 6.70441 3.35063L6.71815 3.36434C6.99751 3.62485 7.26313 3.8945 7.54249 4.18243C7.68446 4.32868 7.83101 4.47493 7.97756 4.62576L9.22782 5.87346C9.71327 6.35792 9.71327 6.80581 9.22782 7.29027C9.09501 7.4228 8.96678 7.55534 8.83397 7.68331C8.44927 8.07636 8.75147 7.77478 8.35304 8.13127C8.34388 8.14041 8.33472 8.14498 8.33014 8.15412C7.93629 8.54717 8.00956 8.93108 8.092 9.19158L8.10573 9.23272C8.31836 9.74676 8.58777 10.2413 8.94343 10.7686M3.13037 20.4307L20.5304 3.03071" stroke="black" stroke-width="2" stroke-linecap="round" stroke-linejoin="round"/>
</svg>