<svg width="25" height="24" viewBox="0 0 25 24" fill="none" xmlns="http://www.w3.org/2000/svg">
<path d="M15.5534 18L11.9534 21.6M11.9534 21.6L8.51261 18.1627M11.9534 21.6V12.7568M1.02554 9.51105C1.02564 8.72818 1.02128 7.80964 1.00153 7.5642C0.978945 6.86869 1.20582 6.30271 1.72551 5.78302C2.77809 4.85678 5.25846 3.8126 5.25846 3.8126C5.25846 3.8126 8.51261 2.39996 11.9547 2.40004C15.3388 2.40012 18.5439 3.47288 20.4034 4.32625C21.541 4.84425 22.2992 5.37594 22.8576 6.0343C23.2133 6.45658 23.3858 6.92897 23.3853 7.48141L23.3658 9.59284C23.3597 10.2584 22.813 10.7918 22.1475 10.7816L19.1364 10.7356C18.4808 10.7256 17.9547 10.1914 17.9547 9.53577V8.30164C17.9547 8.01131 17.7479 7.76325 17.4613 7.71667C16.3914 7.54276 13.805 7.16064 11.9534 7.20004C10.3109 7.23499 8.04433 7.56381 7.05279 7.71932C6.76399 7.76462 6.55469 8.01383 6.55469 8.30616V9.51757C6.55469 10.1803 6.01743 10.7176 5.35468 10.7176L2.22913 10.7176C1.56372 10.7176 1.02545 10.1765 1.02554 9.51105Z" stroke="black" stroke-width="2" stroke-linecap="round" stroke-linejoin="round"/>
</svg>