<svg width="24" height="24" viewBox="0 0 24 24" fill="none" xmlns="http://www.w3.org/2000/svg">
<path d="M20.8509 8.96894L15.3469 8.96894M15.3469 8.96894L15.3444 4.10542M15.3469 8.96894L21.6 2.71591M20.4364 19.0226C20.4364 19.0226 19.2445 20.1933 18.9524 20.5365C18.4765 21.0443 17.9159 21.2841 17.1809 21.2841C17.1103 21.2841 17.0349 21.2841 16.9642 21.2794C15.565 21.1901 14.2647 20.6447 13.2895 20.1792C10.6229 18.891 8.28143 17.0621 6.3357 14.7442C4.72917 12.8118 3.65501 11.0252 2.94362 9.10695C2.50548 7.93625 2.34529 7.02414 2.41596 6.16375C2.46307 5.61367 2.67508 5.15761 3.06611 4.76738L4.67264 3.16413C4.90349 2.94786 5.14847 2.83032 5.38874 2.83032C5.68555 2.83032 5.92582 3.00898 6.07658 3.15943C6.08129 3.16413 6.086 3.16884 6.09072 3.17354C6.3781 3.44153 6.65135 3.71892 6.93874 4.01512C7.08478 4.16557 7.23554 4.31603 7.3863 4.47118L8.67247 5.75471C9.17186 6.25308 9.17186 6.71384 8.67247 7.21221C8.53584 7.34855 8.40393 7.4849 8.2673 7.61654C7.87156 8.02088 8.18244 7.71064 7.77256 8.07736C7.76314 8.08677 7.75371 8.09147 7.749 8.10087C7.34384 8.50521 7.41922 8.90014 7.50402 9.16813C7.50873 9.18224 7.51344 9.19634 7.51815 9.21045C7.85265 10.0191 8.32377 10.7808 9.03988 11.6882L9.04459 11.6929C10.3449 13.2914 11.7159 14.5374 13.2282 15.4918C13.4213 15.614 13.6192 15.7128 13.8076 15.8068C13.9772 15.8914 14.1374 15.9713 14.274 16.056C14.2929 16.0654 14.3117 16.0795 14.3306 16.0889C14.4908 16.1688 14.6415 16.2064 14.797 16.2064C15.188 16.2064 15.433 15.9619 15.5131 15.882L16.4366 14.9604C16.5967 14.8006 16.8512 14.6078 17.148 14.6078C17.4401 14.6078 17.6803 14.7912 17.8264 14.951C17.8311 14.9557 17.8311 14.9557 17.8358 14.9604L20.4317 17.551C20.9169 18.0306 20.4364 19.0226 20.4364 19.0226Z" stroke="black" stroke-width="2" stroke-linecap="round" stroke-linejoin="round"/>
</svg>