<svg width="24" height="24" viewBox="0 0 24 24" fill="none" xmlns="http://www.w3.org/2000/svg">
<path d="M4.80015 9.3953L21.6001 16.8001M21.6001 7.20015L4.80015 14.605M6.00015 9.60015C4.01192 9.60015 2.40015 7.98837 2.40015 6.00015C2.40015 4.01192 4.01192 2.40015 6.00015 2.40015C7.98837 2.40015 9.60015 4.01192 9.60015 6.00015C9.60015 7.98837 7.98837 9.60015 6.00015 9.60015ZM6.00015 21.6001C4.01192 21.6001 2.40015 19.9884 2.40015 18.0001C2.40015 16.0119 4.01192 14.4001 6.00015 14.4001C7.98837 14.4001 9.60015 16.0119 9.60015 18.0001C9.60015 19.9884 7.98837 21.6001 6.00015 21.6001Z" stroke="black" stroke-width="2" stroke-linecap="round" stroke-linejoin="round"/>
</svg>